<svg width="84" height="83" viewBox="0 0 84 83" fill="none" xmlns="http://www.w3.org/2000/svg">
<path d="M55.6221 62.8106H28.3779C26.5004 62.8106 24.973 61.3002 24.973 59.4437C24.973 57.5894 26.5006 56.0811 28.3779 56.0811H41.9998C42.1019 56.0811 42.2041 56.075 42.3063 56.0658C42.3381 56.0631 42.3694 56.0595 42.4009 56.056C42.4747 56.0472 42.5481 56.0362 42.6216 56.0228C42.6509 56.0174 42.6809 56.0131 42.7099 56.0071C42.8014 55.9878 42.8922 55.9647 42.9821 55.938C43.0175 55.9274 43.0523 55.9149 43.087 55.9032C43.1463 55.8835 43.2051 55.8626 43.263 55.8395C43.3006 55.8247 43.3383 55.8094 43.3751 55.7933C43.436 55.7668 43.4954 55.7379 43.5549 55.7076C43.5831 55.6932 43.6119 55.6804 43.6394 55.6652C43.7152 55.6239 43.7901 55.5802 43.8632 55.5328C43.8684 55.5292 43.8821 55.5207 43.8995 55.5091C43.9018 55.5075 43.9041 55.5061 43.9064 55.5046C44.2682 55.267 46.7337 53.6169 49.8127 50.7832C56.3885 44.7303 64.2271 34.8172 64.2271 21.9654C64.2271 9.85367 54.2558 0 41.9998 0C29.744 0 19.7729 9.85367 19.7729 21.9654C19.7729 34.1141 26.8494 43.6033 32.6649 49.3514H28.3779C22.7452 49.3514 18.1622 53.8789 18.1622 59.4437C18.1622 65.011 22.7452 69.5403 28.3779 69.5403H55.6221C57.4996 69.5403 59.027 71.0507 59.027 72.9074C59.027 74.7617 57.4994 76.2703 55.6221 76.2703H21.5676C19.6869 76.2703 18.1622 77.7768 18.1622 79.6351C18.1622 81.4934 19.6869 83 21.5676 83H55.6221C61.2551 83 65.8378 78.4725 65.8378 72.9074C65.8378 67.3399 61.2551 62.8106 55.6221 62.8106ZM42 14.5598C46.1374 14.5598 49.4917 17.8742 49.4917 21.9625C49.4917 26.051 46.1374 29.3652 42 29.3652C37.8624 29.3652 34.5081 26.051 34.5081 21.9625C34.5081 17.8742 37.8624 14.5598 42 14.5598Z" fill="black"/>
</svg>
