<svg width="79" height="79" viewBox="0 0 79 79" fill="none" xmlns="http://www.w3.org/2000/svg">
<g clip-path="url(#clip0_76_289)">
<path d="M70.2424 0.625072C69.8348 0.039405 69.0642 -0.16438 68.4203 0.142154C60.2826 4.02263 48.3689 12.0062 39.387 27.6531C44.5929 35.5579 49.1053 45.7351 51.4719 58.6917C51.7819 45.7437 54.3506 17.8338 70.0626 2.50195C70.5746 2.00533 70.6482 1.21074 70.2424 0.625072Z" fill="black"/>
<path d="M16.5648 11.8247C16.3216 11.6637 16.0442 11.5867 15.7668 11.5867C15.3712 11.5867 14.9773 11.7476 14.6913 12.0576C14.2084 12.5833 14.1776 13.3813 14.616 13.943C30.4581 34.2325 26.069 69.2509 24.7984 77.3115C24.7316 77.7345 24.8514 78.1644 25.1289 78.4897C25.4063 78.8117 25.8121 79.0018 26.2386 79.0018H46.6307C47.0229 79.0018 47.3945 78.8459 47.6685 78.5685C47.9425 78.2911 48.0949 77.9161 48.0898 77.5256C47.6171 38.089 28.2524 19.4812 16.5648 11.8247Z" fill="black"/>
<path d="M4.21955 47.1856C3.93699 47.0007 3.56024 47.0469 3.33077 47.2952C3.1013 47.5452 3.08589 47.922 3.29481 48.1891C10.8074 57.8081 8.72679 74.4106 8.12228 78.2311C8.08974 78.4332 8.14968 78.6181 8.27812 78.774C8.40998 78.9281 8.60349 79 8.80556 79H18.4725C18.6557 79 18.8338 78.9418 18.964 78.8116C19.0941 78.6815 19.166 78.5102 19.1643 78.3253C18.9417 59.6285 9.76283 50.8161 4.21955 47.1856Z" fill="black"/>
<path d="M75.599 35.2599C75.2805 34.9157 74.7668 34.8507 74.3729 35.1075C66.7301 40.1131 54.0732 52.2803 53.7615 78.0685C53.7564 78.3202 53.8626 78.5497 54.0372 78.7329C54.2171 78.9144 54.4585 79 54.7171 79H68.0487C68.3296 79 68.5916 78.8939 68.7748 78.6798C68.9529 78.4675 69.0317 78.1969 68.9906 77.9212C68.16 72.6502 65.2899 49.7561 75.6504 36.4878C75.9381 36.1213 75.9159 35.6042 75.599 35.2599Z" fill="black"/>
</g>
<defs>
<clipPath id="clip0_76_289">
<rect width="79" height="79" fill="white"/>
</clipPath>
</defs>
</svg>
