<svg width="84" height="84" viewBox="0 0 84 84" fill="none" xmlns="http://www.w3.org/2000/svg">
<g clip-path="url(#clip0_76_398)">
<path d="M82.5247 33.0186L72.0144 24.4525V10.753C72.0144 9.21032 70.7591 7.95506 69.2164 7.95506H62.6031C61.0604 7.95506 59.8051 9.21032 59.8051 10.753V14.5015L45.7612 3.0556C44.7453 2.22792 43.4064 1.77185 41.9911 1.77185C40.5815 1.77185 39.2489 2.22512 38.2386 3.04848L1.4753 33.0183C-0.195077 34.3794 -0.0948597 35.565 0.11346 36.1505C0.321271 36.7348 0.99049 37.7151 3.13626 37.7151H8.17028V77.1272C8.17028 79.9399 10.4524 82.2279 13.2575 82.2279H29.1549C31.9363 82.2279 34.1149 79.9872 34.1149 77.1272V60.965C34.1149 59.5797 35.388 58.3184 36.7857 58.3184H47.4687C48.8011 58.3184 49.8851 59.5057 49.8851 60.965V77.1272C49.8851 79.8921 52.2731 82.2279 55.0995 82.2279H70.7426C73.5476 82.2279 75.8298 79.9397 75.8298 77.1272V37.7151H80.8638C83.0095 37.7151 83.6785 36.7348 83.8866 36.1505C84.0949 35.565 84.1951 34.3794 82.5247 33.0186Z" fill="black"/>
</g>
<defs>
<clipPath id="clip0_76_398">
<rect width="84" height="84" fill="white"/>
</clipPath>
</defs>
</svg>
