<svg width="84" height="84" viewBox="0 0 84 84" fill="none" xmlns="http://www.w3.org/2000/svg">
<path d="M58.7973 42.4906C57.955 44.3623 56.8105 46.0639 55.4249 47.5431C53.7931 49.2863 51.8303 50.7092 49.6336 51.7146C52.303 52.1845 54.1934 52.8338 55.1477 53.3853C53.4503 54.3667 48.8813 55.6799 42 55.6799C35.1187 55.6799 30.5497 54.3667 28.8524 53.3853C29.8068 52.8336 31.6972 52.1845 34.3666 51.7146C32.1699 50.7092 30.2071 49.2863 28.5751 47.5431C27.1895 46.0639 26.0451 44.3635 25.2027 42.4906C11.1329 44.4907 0 49.084 0 56.1272C0 65.837 21.1291 70.9174 42 70.9174C62.8709 70.9174 84 65.837 84 56.1272C84 49.084 72.8686 44.4907 58.7973 42.4906ZM42 65.4339C18.3726 65.4339 5.48349 59.2865 5.48349 56.1272C5.48349 53.6358 13.529 49.2981 28.5027 47.5699C25.1548 48.8044 22.8479 50.6799 22.8479 53.3853C22.8479 59.1257 33.1654 61.1634 42 61.1634C50.8344 61.1634 61.1521 59.1257 61.1521 53.3853C61.1521 50.6799 58.8452 48.8042 55.4973 47.5699C70.471 49.2981 78.5165 53.6358 78.5165 56.1272C78.5165 59.2865 65.6274 65.4339 42 65.4339Z" fill="black"/>
<path d="M42 47.9086C49.1435 47.9086 54.9336 42.1199 54.9336 34.975C54.9336 28.7264 46.3954 21.0289 43.0677 13.7452C42.6617 12.8566 41.3833 12.8635 40.9856 13.7559C37.7592 20.9921 29.0665 28.7361 29.0665 34.975C29.0664 42.1199 34.8565 47.9086 42 47.9086ZM34.8244 33.4568C35.945 33.4568 36.8538 34.3661 36.8538 35.4865C36.8538 37.445 38.4457 39.0368 40.4044 39.0368C41.525 39.0368 42.4337 39.9457 42.4337 41.0662C42.4337 42.1868 41.5248 43.0957 40.4044 43.0957C36.2087 43.0957 32.7951 39.6819 32.7951 35.4865C32.7949 34.3661 33.7038 33.4568 34.8244 33.4568Z" fill="black"/>
</svg>
