<svg width="28" height="31" viewBox="0 0 28 31" fill="none" xmlns="http://www.w3.org/2000/svg">
<path d="M0 8.6391H28V27.7097C28 29.3666 26.6569 30.7097 25 30.7097H3C1.34315 30.7097 0 29.3666 0 27.7097V8.6391Z" fill="#3252DF"/>
<rect x="3.19995" y="11.2308" width="5.6" height="4.31953" rx="0.5" fill="white"/>
<rect x="11.2001" y="11.2308" width="5.6" height="4.31953" rx="0.5" fill="white"/>
<rect x="19.2" y="11.2308" width="5.6" height="4.31953" rx="0.5" fill="white"/>
<rect x="3.19995" y="17.2781" width="5.6" height="4.31953" rx="0.5" fill="white"/>
<rect x="11.2001" y="17.2781" width="5.6" height="4.31953" rx="0.5" fill="white"/>
<rect x="19.2" y="17.2781" width="5.6" height="4.31953" rx="0.5" fill="white"/>
<rect x="3.19995" y="23.3255" width="5.6" height="4.31953" rx="0.5" fill="white"/>
<rect x="11.2001" y="23.3255" width="5.6" height="4.31953" rx="0.5" fill="white"/>
<rect x="19.2" y="23.3255" width="5.6" height="4.31953" rx="0.5" fill="white"/>
<path d="M0 6.76622C0 4.93783 1.4822 3.45563 3.31059 3.45563H24.6894C26.5178 3.45563 28 4.93783 28 6.76622V6.76622H0V6.76622Z" fill="#3252DF"/>
<path d="M5.59998 0.999999C5.59998 0.447714 6.04769 0 6.59998 0H9.91998C10.4723 0 10.92 0.447715 10.92 1V5.29695H5.59998V0.999999Z" fill="#3252DF"/>
<path d="M17.0801 0.999999C17.0801 0.447714 17.5278 0 18.0801 0H21.4001C21.9524 0 22.4001 0.447715 22.4001 1V5.29695H17.0801V0.999999Z" fill="#3252DF"/>
</svg>
