<svg width="37" height="37" viewBox="0 0 37 37" fill="none" xmlns="http://www.w3.org/2000/svg">
  <g clip-path="url(#clip0_570_16)">
    <path d="M37 18.5C37 8.28273 28.7173 0 18.5 0C8.28273 0 0 8.28273 0 18.5C0 28.7173 8.28273 37 18.5 37C28.7173 37 37 28.7173 37 18.5Z" fill="white" />
    <path d="M26.8332 18.5H16.9373M24.7498 21.625L27.8748 18.5L24.7498 15.375M19.5415 13.2916V12.25C19.5415 11.6974 19.322 11.1675 18.9313 10.7768C18.5406 10.3861 18.0107 10.1666 17.4582 10.1666H12.2498C11.6973 10.1666 11.1674 10.3861 10.7767 10.7768C10.386 11.1675 10.1665 11.6974 10.1665 12.25V24.75C10.1665 25.3025 10.386 25.8324 10.7767 26.2231C11.1674 26.6138 11.6973 26.8333 12.2498 26.8333H17.4582C18.0107 26.8333 18.5406 26.6138 18.9313 26.2231C19.322 25.8324 19.5415 25.3025 19.5415 24.75V23.7083" stroke="#2317EC" stroke-width="3.6036" stroke-linecap="round" stroke-linejoin="round" />
  </g>
  <defs>
    <clipPath id="clip0_570_16">
      <rect width="37" height="37" fill="#2317EC" />
    </clipPath>
  </defs>
</svg>