<svg width="37" height="37" viewBox="0 0 37 37" fill="none" xmlns="http://www.w3.org/2000/svg">
  <g clip-path="url(#clip0_570_4)">
    <path d="M37 18.5C37 8.28273 28.7173 0 18.5 0C8.28273 0 0 8.28273 0 18.5C0 28.7173 8.28273 37 18.5 37C28.7173 37 37 28.7173 37 18.5Z" fill="white" />
    <path d="M20.6081 20.869C20.6093 19.5467 21.6797 18.4758 23.0014 18.4752H26.9551V15.6308C26.9551 14.4464 26.0427 13.4753 24.882 13.3799V13.3708H12.0695C11.7307 13.3708 11.4552 13.0959 11.4552 12.7572C11.4552 12.4173 11.7307 12.1429 12.0695 12.1429H24.8808C24.8633 10.9093 23.859 9.91394 22.6214 9.91394H12.8667C10.9234 9.91394 9.34261 11.4479 9.25849 13.3708H9.25V13.5306V16.1616V23.4694C9.25 25.4669 10.8692 27.0861 12.8667 27.0861H24.6951C25.9434 27.0861 26.9551 26.0738 26.9551 24.8255V23.2617H23.0014C21.6797 23.2616 20.6093 22.1901 20.6081 20.869Z" fill="#2317EC" />
    <path d="M27.4057 19.3876H23.0015C22.591 19.3876 22.2235 19.5524 21.9542 19.8212C21.6854 20.0905 21.52 20.458 21.52 20.869C21.52 21.2789 21.6854 21.647 21.9542 21.9163C22.2235 22.1856 22.591 22.3499 23.0015 22.3505H27.4057C27.596 22.3505 27.7501 22.1958 27.7501 22.0055V19.732C27.7501 19.5411 27.596 19.3876 27.4057 19.3876ZM23.0269 21.3624C22.7542 21.3624 22.5334 21.1411 22.5334 20.869C22.5334 20.5957 22.7542 20.3744 23.0269 20.3744C23.2996 20.3744 23.5209 20.5957 23.5209 20.869C23.5209 21.1411 23.2996 21.3624 23.0269 21.3624Z" fill="#2317EC" />
  </g>
  <defs>
    <clipPath id="clip0_570_4">
      <rect width="37" height="37" fill="#2317EC" />
    </clipPath>
  </defs>
</svg>