<svg width="37" height="37" viewBox="0 0 37 37" fill="none" xmlns="http://www.w3.org/2000/svg">
  <g clip-path="url(#clip0_570_11)">
    <path d="M37 18.5C37 8.28273 28.7173 0 18.5 0C8.28273 0 0 8.28273 0 18.5C0 28.7173 8.28273 37 18.5 37C28.7173 37 37 28.7173 37 18.5Z" fill="white" />
    <path d="M18.5 18.0774C19.6367 18.0774 20.727 17.6258 21.5308 16.822C22.3346 16.0182 22.7862 14.928 22.7862 13.7912C22.7862 12.6544 22.3346 11.5642 21.5308 10.7604C20.727 9.95659 19.6367 9.505 18.5 9.505C17.3632 9.505 16.273 9.95659 15.4692 10.7604C14.6653 11.5642 14.2138 12.6544 14.2138 13.7912C14.2138 14.928 14.6653 16.0182 15.4692 16.822C16.273 17.6258 17.3632 18.0774 18.5 18.0774ZM18.5 19.9606C12.8012 19.9606 9.14795 23.1054 9.14795 24.6366V27.4957H27.852V24.6366C27.852 22.7849 24.3934 19.9606 18.5 19.9606Z" fill="#2317EC" />
  </g>
  <defs>
    <clipPath id="clip0_570_11">
      <rect width="37" height="37" fill="#2317EC" />
    </clipPath>
  </defs>
</svg>